<svg xmlns="http://www.w3.org/2000/svg" version="1.1" xmlns:xlink="http://www.w3.org/1999/xlink" xmlns:svgjs="http://svgjs.dev/svgjs" width="1000" height="378" viewBox="0 0 1000 378"><g transform="matrix(1,0,0,1,-0.6056348047761162,0.4743681698443254)"><svg viewBox="0 0 396 150" data-background-color="#130e10" preserveAspectRatio="xMidYMid meet" height="378" width="1000" xmlns="http://www.w3.org/2000/svg" xmlns:xlink="http://www.w3.org/1999/xlink"><g id="tight-bounds" transform="matrix(1,0,0,1,0.24008861730862918,-0.18824133723981618)"><svg viewBox="0 0 395.52 150.37648267447963" height="150.37648267447963" width="395.52"><g><svg viewBox="0 0 395.52 150.37648267447963" height="150.37648267447963" width="395.52"><g><svg viewBox="0 0 395.52 150.37648267447963" height="150.37648267447963" width="395.52"><g><svg viewBox="0 0 395.52 150.37648267447963" height="150.37648267447963" width="395.52"><g><svg viewBox="0 0 395.52 115.4421167579545" height="115.4421167579545" width="395.52"><path d="M394.594 24.76C392.735 12.777 387.435 9.446 387.435 9.446 371.165-2.896 350.86-0.236 332.619 1.537 300.414 1.609 268.339 4.245 236.208 5.659 168.767 5.875 100.749 2.328 33.643 11.076 27.339 13.76-6.54 11.603 1.121 26.294 3.129 32.405 10.456 39.187 10.232 44.795 11.236 45.778 12.631 43.525 13.226 44.939 15.309 48.75 18.711 46.952 21.501 49.205 17.614 55.221 20.403 60.229 23.062 65.478 18.377 66.844 12.371 66.197 9.675 70.726 9.396 74.01 7.89 73.387 6.235 73.243 5.026 73.147 2.59 73.506 2.999 74.537 4.394 78.06-1.594 80.097 2.162 83.548-0.422 87.287 3.948 90.522 3.353 94.572 3.278 95.387 3.687 96.082 4.338 96.274 7.22 97.304 3.018 99.317 3.464 101.498 33.029 116.405 65.104 106.1 95.394 112.954 103.259 108.161 97.346 114.655 100.489 113.649 102.943 112.475 104.728 117.34 107.499 114.584 107.927 113.793 107.276 111.923 108.8 112.283 109.6 112.475 110.307 112.427 110.418 111.324 110.586 109.671 109.117 110.701 108.726 109.838 112.947 105.477 111.906 115.854 115.866 115.422 115.68 114.152 114.528 112.331 116.889 112.57 119.232 110.749 119.306 109.239 121.389 113.337 121.463 114.224 121.835 114.847 122.43 115.279 128.938 110.821 135.409 116.86 142.233 114.847 146.417 112.642 150.433 116.045 154.672 115.207 156.16 114.536 157.666 113.337 159.098 115.35 176.632 115.782 195.319 113.984 211.943 115.422 256.364 112.738 303.835 116.525 350.674 112.978 361.719 111.612 373.192 109.671 383.958 108.113 383.958 108.113 392.679 103.847 392.679 84.674S394.538 67.898 394.817 52.632C395.096 37.366 396.398 36.743 394.538 24.76Z" opacity="1" fill="#000000" data-fill-palette-color="tertiary"></path><g transform="matrix(1,0,0,1,55.76832,26.068561146666667)"><svg width="283.98335999999995" viewBox="2.25 -35.29999923706055 159.69000244140625 35.599998474121094" height="63.30499446462115" data-palette-color="#130e10"><path d="M7.2-3.2L30.95-3.2 30.95 0 2.25 0 2.25-2.55 25.45-31.8 2.6-31.8 2.6-35 30.35-35 30.35-32.45 7.2-3.2ZM38.25 0L38.25-35 41.95-35 41.95 0 38.25 0ZM78.95-35L82.6-35 82.6 0 79.55 0 57.05-28.4 57.05 0 53.35 0 53.35-35 56.4-35 78.95-6.6 78.95-35ZM119.14 0L104.84-16.45 97.69-9.2 97.69 0 93.99 0 93.99-35 97.69-35 97.69-13.85 118.24-35 122.49-35 107.34-19.15 123.54 0 119.14 0ZM143.59 0.3Q138.39 0.3 134.17-2.02 129.94-4.35 127.57-8.4 125.19-12.45 125.19-17.5L125.19-17.5Q125.19-22.55 127.57-26.6 129.94-30.65 134.17-32.98 138.39-35.3 143.59-35.3L143.59-35.3Q148.79-35.3 152.97-33 157.14-30.7 159.54-26.63 161.94-22.55 161.94-17.5L161.94-17.5Q161.94-12.45 159.54-8.38 157.14-4.3 152.97-2 148.79 0.3 143.59 0.3L143.59 0.3ZM143.59-3Q147.74-3 151.09-4.88 154.44-6.75 156.34-10.08 158.24-13.4 158.24-17.5L158.24-17.5Q158.24-21.6 156.34-24.93 154.44-28.25 151.09-30.13 147.74-32 143.59-32L143.59-32Q139.44-32 136.07-30.13 132.69-28.25 130.77-24.93 128.84-21.6 128.84-17.5L128.84-17.5Q128.84-13.4 130.77-10.08 132.69-6.75 136.07-4.88 139.44-3 143.59-3L143.59-3Z" opacity="1" transform="matrix(1,0,0,1,0,0)" fill="#ffffff" class="undefined-text-0" data-fill-palette-color="quaternary" id="text-0"></path></svg></g></svg></g><g transform="matrix(1,0,0,1,75.54431999999998,130.3869066311844)"><svg viewBox="0 0 244.43136 19.98957604329525" height="19.98957604329525" width="244.43136"><g transform="matrix(1,0,0,1,0,0)"><svg width="244.43136" viewBox="4 -33.25 415.7099914550781 34" height="19.98957604329525" data-palette-color="#ede4da"><path d="M20.9-6.25L20.9-6.25Q20.9 0.75 12.45 0.75 4 0.75 4-6.25L4-6.25 4-10.5 7.5-10.5 7.5-6.05Q7.5-4.25 8.75-3.25 10-2.25 12.45-2.25 14.9-2.25 16.15-3.25 17.4-4.25 17.4-5.98 17.4-7.7 17.03-8.72 16.65-9.75 15.5-10.9L15.5-10.9 6.7-19.5Q5.15-21.05 4.58-22.53 4-24 4-26.25L4-26.25Q4-29.6 6.08-31.43 8.15-33.25 12.35-33.25L12.35-33.25Q20.4-33.25 20.4-26.25L20.4-26.25 20.4-22 16.9-22 16.9-26.45Q16.9-28.25 15.73-29.25 14.55-30.25 12.2-30.25 9.85-30.25 8.68-29.25 7.5-28.25 7.5-26.5 7.5-24.75 7.85-23.75 8.2-22.75 9.4-21.65L9.4-21.65 18.35-13.05Q19.8-11.45 20.35-9.98 20.9-8.5 20.9-6.25ZM46.15-26.25L46.15-26.25 46.15-6.25Q46.15-2.9 44.02-1.07 41.9 0.75 37.67 0.75 33.45 0.75 31.3-1.07 29.15-2.9 29.15-6.25L29.15-6.25 29.15-26.25Q29.15-29.6 31.27-31.43 33.4-33.25 37.62-33.25 41.85-33.25 44-31.43 46.15-29.6 46.15-26.25ZM42.65-6.25L42.65-6.25 42.65-26.25Q42.65-30.25 37.65-30.25 32.65-30.25 32.65-26.25L32.65-26.25 32.65-6.25Q32.65-2.25 37.65-2.25 42.65-2.25 42.65-6.25ZM58.9-15L58.9 0 55.4 0 55.4-32.5 69.15-32.5 69.15-29.5 58.9-29.5 58.9-18 67.15-18 67.15-15 58.9-15ZM75.39-5.75L75.39-32.5 86.39-32.5 86.39-29.5 78.89-29.5 78.89-5.55Q78.89-4.15 79.62-3.2 80.34-2.25 81.67-2.25 82.99-2.25 83.69-3.18 84.39-4.1 84.39-5.55L84.39-5.55 84.39-11.5 87.89-11.5 87.89-5.75Q87.89-2.6 86.22-0.93 84.54 0.75 81.69 0.75 78.84 0.75 77.12-0.93 75.39-2.6 75.39-5.75L75.39-5.75ZM107.14-6.25L107.14-6.25 107.14-32.5 110.64-32.5 110.64-6.25Q110.64-2.25 115.27-2.25 119.89-2.25 119.89-6.25L119.89-6.25 119.89-32.5 123.39-32.5 123.39-6.25Q123.39-2.95 121.29-1.1 119.19 0.75 115.07 0.75 110.94 0.75 108.89-2.15L108.89-2.15Q106.94 0.75 102.77 0.75 98.59 0.75 96.49-1.1 94.39-2.95 94.39-6.25L94.39-6.25 94.39-32.5 97.89-32.5 97.89-6.25Q97.89-2.25 102.52-2.25 107.14-2.25 107.14-6.25ZM148.39-26.25L148.39 0 146.89 0 145.59-3.2Q144.54-1.4 142.84-0.33 141.14 0.75 139.09 0.75L139.09 0.75Q131.89 0.75 131.89-6.25L131.89-6.25 131.89-11.25Q131.89-18.25 139.09-18.25L139.09-18.25 144.89-18.25 144.89-26.45Q144.89-28.25 143.74-29.25 142.59-30.25 140.34-30.25L140.34-30.25Q135.89-30.25 135.89-26.45L135.89-26.45 135.89-23.5 132.39-23.5 132.39-26.25Q132.39-29.6 134.36-31.43 136.34-33.25 140.34-33.25 144.34-33.25 146.36-31.43 148.39-29.6 148.39-26.25L148.39-26.25ZM144.89-7.1L144.89-15.25 139.09-15.25Q136.99-15.25 136.19-14.2 135.39-13.15 135.39-11.25L135.39-11.25 135.39-6.25Q135.39-4.35 136.19-3.3 136.99-2.25 139.09-2.25 141.19-2.25 142.99-3.88 144.79-5.5 144.89-7.1L144.89-7.1ZM161.39-22.85L161.39 0 157.89 0 157.89-32.5 159.39-32.5 160.84-28.8Q162.44-33.25 165.94-33.25L165.94-33.25Q171.89-33.25 171.89-26.75L171.89-26.75 171.89-23.5 168.54-23.5 168.54-26.95Q168.54-30.25 165.79-30.25L165.79-30.25Q164.14-30.25 162.76-28.35 161.39-26.45 161.39-22.85L161.39-22.85ZM190.13-6.25L190.13-6.25 190.13-9 193.63-9 193.63-6.25Q193.63-2.9 191.58-1.07 189.53 0.75 185.43 0.75 181.33 0.75 179.23-1.07 177.13-2.9 177.13-6.25L177.13-6.25 177.13-26.25Q177.13-29.6 179.18-31.43 181.23-33.25 185.33-33.25 189.43-33.25 191.53-31.43 193.63-29.6 193.63-26.25L193.63-26.25 193.63-15.25 180.63-15.25 180.63-6.25Q180.63-2.25 185.38-2.25 190.13-2.25 190.13-6.25ZM180.63-26.25L180.63-26.25 180.63-18.25 190.13-18.25 190.13-26.25Q190.13-30.25 185.38-30.25 180.63-30.25 180.63-26.25ZM222.43 0L222.43 0 214.38 0 214.38-32.5 222.43-32.5Q226.33-32.5 228.35-30.65 230.38-28.8 230.38-25.5L230.38-25.5 230.38-7Q230.38-3.65 228.38-1.83 226.38 0 222.43 0ZM226.88-7L226.88-7 226.88-25.5Q226.88-27.4 225.73-28.45 224.58-29.5 222.43-29.5L222.43-29.5 217.88-29.5 217.88-3 222.43-3Q226.88-3 226.88-7ZM251.88-6.25L251.88-6.25 251.88-9 255.38-9 255.38-6.25Q255.38-2.9 253.33-1.07 251.28 0.75 247.18 0.75 243.08 0.75 240.98-1.07 238.88-2.9 238.88-6.25L238.88-6.25 238.88-26.25Q238.88-29.6 240.93-31.43 242.98-33.25 247.08-33.25 251.18-33.25 253.28-31.43 255.38-29.6 255.38-26.25L255.38-26.25 255.38-15.25 242.38-15.25 242.38-6.25Q242.38-2.25 247.13-2.25 251.88-2.25 251.88-6.25ZM242.38-26.25L242.38-26.25 242.38-18.25 251.88-18.25 251.88-26.25Q251.88-30.25 247.13-30.25 242.38-30.25 242.38-26.25ZM281.57-32.5L274.22 0 268.97 0 261.62-32.5 265.12-32.5 271.57-3.85 278.07-32.5 281.57-32.5ZM300.82-6.25L300.82-6.25 300.82-9 304.32-9 304.32-6.25Q304.32-2.9 302.27-1.07 300.22 0.75 296.12 0.75 292.02 0.75 289.92-1.07 287.82-2.9 287.82-6.25L287.82-6.25 287.82-26.25Q287.82-29.6 289.87-31.43 291.92-33.25 296.02-33.25 300.12-33.25 302.22-31.43 304.32-29.6 304.32-26.25L304.32-26.25 304.32-15.25 291.32-15.25 291.32-6.25Q291.32-2.25 296.07-2.25 300.82-2.25 300.82-6.25ZM291.32-26.25L291.32-26.25 291.32-18.25 300.82-18.25 300.82-26.25Q300.82-30.25 296.07-30.25 291.32-30.25 291.32-26.25ZM326.22 0L313.57 0 313.57-32.5 317.07-32.5 317.07-3 326.22-3 326.22 0ZM348.46-26.25L348.46-26.25 348.46-6.25Q348.46-2.9 346.34-1.07 344.21 0.75 339.99 0.75 335.76 0.75 333.61-1.07 331.46-2.9 331.46-6.25L331.46-6.25 331.46-26.25Q331.46-29.6 333.59-31.43 335.71-33.25 339.94-33.25 344.16-33.25 346.31-31.43 348.46-29.6 348.46-26.25ZM344.96-6.25L344.96-6.25 344.96-26.25Q344.96-30.25 339.96-30.25 334.96-30.25 334.96-26.25L334.96-26.25 334.96-6.25Q334.96-2.25 339.96-2.25 344.96-2.25 344.96-6.25ZM360.71-10L360.71 0 357.21 0 357.21-32.5 364.76-32.5Q368.66-32.5 370.69-30.65 372.71-28.8 372.71-25.5L372.71-25.5 372.71-17Q372.71-13.65 370.71-11.83 368.71-10 364.76-10L364.76-10 360.71-10ZM369.21-17L369.21-17 369.21-25.5Q369.21-27.4 368.06-28.45 366.91-29.5 364.76-29.5L364.76-29.5 360.71-29.5 360.71-13 364.76-13Q369.21-13 369.21-17ZM392.96-6.25L392.96-6.25 392.96-9 396.46-9 396.46-6.25Q396.46-2.9 394.41-1.07 392.36 0.75 388.26 0.75 384.16 0.75 382.06-1.07 379.96-2.9 379.96-6.25L379.96-6.25 379.96-26.25Q379.96-29.6 382.01-31.43 384.06-33.25 388.16-33.25 392.26-33.25 394.36-31.43 396.46-29.6 396.46-26.25L396.46-26.25 396.46-15.25 383.46-15.25 383.46-6.25Q383.46-2.25 388.21-2.25 392.96-2.25 392.96-6.25ZM383.46-26.25L383.46-26.25 383.46-18.25 392.96-18.25 392.96-26.25Q392.96-30.25 388.21-30.25 383.46-30.25 383.46-26.25ZM409.21-22.85L409.21 0 405.71 0 405.71-32.5 407.21-32.5 408.66-28.8Q410.26-33.25 413.76-33.25L413.76-33.25Q419.71-33.25 419.71-26.75L419.71-26.75 419.71-23.5 416.36-23.5 416.36-26.95Q416.36-30.25 413.61-30.25L413.61-30.25Q411.96-30.25 410.58-28.35 409.21-26.45 409.21-22.85L409.21-22.85Z" opacity="1" transform="matrix(1,0,0,1,0,0)" fill="#000000" class="undefined-text-1" data-fill-palette-color="secondary" id="text-1"></path></svg></g></svg></g></svg></g></svg></g><g></g></svg></g><defs></defs></svg><rect width="395.52" height="150.37648267447963" fill="none" stroke="none" visibility="hidden"></rect></g></svg></g></svg>