<?xml version="1.0" standalone="no"?>
<!DOCTYPE svg PUBLIC "-//W3C//DTD SVG 20010904//EN"
 "http://www.w3.org/TR/2001/REC-SVG-20010904/DTD/svg10.dtd">
<svg version="1.0" xmlns="http://www.w3.org/2000/svg"
 width="700.000000pt" height="700.000000pt" viewBox="0 0 700.000000 700.000000"
 preserveAspectRatio="xMidYMid meet">
<metadata>
Created by potrace 1.14, written by Peter Selinger 2001-2017
</metadata>
<g transform="translate(0.000000,700.000000) scale(0.100000,-0.100000)"
fill="#000000" stroke="none">
<path d="M1350 5605 c0 -33 2 -35 35 -35 33 0 35 2 35 35 0 33 -2 35 -35 35
-33 0 -35 -2 -35 -35z"/>
<path d="M1430 5605 l0 -35 2180 0 2180 0 0 35 0 35 -2180 0 -2180 0 0 -35z"/>
<path d="M5800 5605 c0 -33 2 -35 35 -35 33 0 35 2 35 35 0 33 -2 35 -35 35
-33 0 -35 -2 -35 -35z"/>
<path d="M1350 3380 l0 -2180 35 0 35 0 0 2180 0 2180 -35 0 -35 0 0 -2180z"/>
<path d="M5800 3380 l0 -2180 35 0 35 0 0 2180 0 2180 -35 0 -35 0 0 -2180z"/>
<path d="M3555 5292 c-291 -161 -649 -500 -969 -916 -197 -257 -203 -263 -348
-284 -72 -11 -136 -37 -151 -63 -28 -45 36 -109 109 -109 77 0 85 26 -129
-437 -69 -148 -85 -193 -70 -193 30 0 102 111 276 426 l117 212 83 11 c45 7
174 28 287 48 235 41 280 47 280 40 0 -10 -86 -246 -162 -447 -143 -375 -196
-587 -205 -821 -6 -150 0 -219 18 -219 19 0 107 209 334 790 78 201 177 449
220 552 72 175 79 188 109 198 18 5 90 44 161 86 143 84 351 191 436 224 94
36 210 60 326 67 95 5 116 3 137 -11 39 -25 35 -77 -12 -169 -73 -140 -151
-232 -632 -742 -535 -568 -858 -942 -959 -1112 -77 -130 -73 -255 10 -272 96
-19 301 39 579 166 318 145 366 166 560 244 178 72 366 137 635 218 55 17 116
40 135 52 l35 22 -30 13 c-41 18 -190 17 -301 -1 -258 -42 -562 -147 -964
-335 -177 -83 -317 -140 -342 -140 -29 0 -21 20 43 110 134 186 435 529 800
910 456 476 619 668 692 815 77 156 73 258 -14 343 -139 136 -478 86 -889
-130 -138 -72 -255 -148 -329 -211 -30 -26 -56 -45 -58 -44 -1 2 37 93 86 203
191 432 301 729 301 811 0 110 -97 155 -205 95z m35 -137 c0 -45 -423 -906
-463 -943 -31 -29 -66 -37 -250 -57 -168 -17 -293 -20 -302 -5 -12 19 8 53
110 189 269 357 772 830 883 831 13 0 22 -6 22 -15z"/>
<path d="M2767 1968 c-27 -60 -28 -90 -3 -55 7 9 26 17 41 17 15 0 34 -8 41
-17 7 -10 15 -15 18 -12 10 10 -45 129 -59 129 -6 0 -24 -28 -38 -62z m52 5
c11 -21 9 -23 -13 -23 -24 0 -25 2 -14 25 6 14 12 24 13 23 1 -2 8 -13 14 -25z"/>
<path d="M2900 1965 l0 -65 43 0 c50 0 77 22 77 61 0 43 -34 69 -89 69 l-31 0
0 -65z m78 29 c40 -28 22 -74 -30 -74 -27 0 -28 2 -28 45 0 50 16 58 58 29z"/>
<path d="M3057 2023 c-4 -3 -7 -33 -7 -65 0 -45 3 -58 15 -58 8 0 15 7 15 15
0 8 9 15 19 15 10 0 21 -7 25 -15 3 -8 12 -15 21 -15 13 0 13 3 3 20 -10 15
-10 22 0 32 19 19 14 45 -10 62 -23 16 -69 21 -81 9z m69 -28 c19 -15 19 -15
0 -30 -31 -23 -46 -18 -46 15 0 33 15 38 46 15z"/>
<path d="M3196 2023 c-3 -3 -6 -33 -6 -65 0 -45 3 -58 15 -58 12 0 15 13 15
59 0 56 -9 79 -24 64z"/>
<path d="M3270 1970 c-16 -33 -30 -62 -30 -65 0 -12 28 -4 34 10 8 21 56 19
72 -2 7 -10 15 -15 19 -11 8 8 -44 128 -56 128 -5 0 -22 -27 -39 -60z m44 -18
c-21 -5 -24 0 -17 27 l6 23 13 -23 c11 -20 10 -25 -2 -27z"/>
<path d="M3400 1965 c0 -37 4 -65 10 -65 6 0 10 19 10 43 l0 42 36 -42 c20
-24 40 -43 45 -43 5 0 9 29 9 65 0 37 -4 65 -10 65 -5 0 -10 -21 -10 -47 l0
-46 -36 46 c-20 26 -41 47 -45 47 -5 0 -9 -29 -9 -65z"/>
<path d="M3600 2021 c0 -6 16 -11 36 -13 l37 -3 -37 -43 c-20 -24 -36 -48 -36
-53 0 -5 25 -9 55 -9 30 0 55 5 55 10 0 6 -16 10 -35 10 -19 0 -35 3 -35 6 0
3 16 25 35 48 19 24 32 46 28 49 -10 11 -103 8 -103 -2z"/>
<path d="M3736 2023 c-3 -3 -6 -33 -6 -65 0 -45 3 -58 15 -58 12 0 15 13 15
59 0 56 -9 79 -24 64z"/>
<path d="M3800 1965 c0 -71 17 -90 22 -24 l3 41 30 -41 c43 -59 55 -54 55 24
0 37 -4 65 -10 65 -5 0 -10 -18 -10 -40 0 -22 -3 -40 -7 -40 -5 0 -21 18 -37
40 -17 22 -33 40 -38 40 -4 0 -8 -29 -8 -65z"/>
<path d="M3950 1965 c0 -37 4 -65 10 -65 6 0 10 6 10 14 0 7 6 19 14 25 11 9
18 6 35 -15 11 -14 26 -24 32 -22 7 2 2 15 -14 33 l-25 30 24 29 c35 40 20 46
-19 8 -41 -40 -47 -40 -47 -2 0 17 -4 30 -10 30 -6 0 -10 -28 -10 -65z"/>
<path d="M4106 2009 c-51 -40 -23 -109 44 -109 43 0 70 26 70 66 0 25 -43 64
-70 64 -10 0 -29 -9 -44 -21z m68 -12 c12 -9 17 -23 14 -42 -2 -25 -8 -31 -33
-33 -19 -3 -33 2 -42 14 -17 24 -17 30 7 54 24 24 30 24 54 7z"/>
<path d="M2756 1735 c-3 -8 4 -24 16 -35 l22 -20 -22 0 c-12 0 -22 -4 -22 -10
0 -5 14 -10 30 -10 41 0 51 27 19 51 -19 15 -20 19 -7 19 9 0 20 5 23 10 4 6
-6 10 -23 10 -17 0 -32 -6 -36 -15z"/>
<path d="M2842 1738 c-28 -28 -7 -78 33 -78 27 0 45 18 45 45 0 27 -18 45 -45
45 -12 0 -26 -5 -33 -12z m48 -33 c0 -16 -6 -25 -15 -25 -9 0 -15 9 -15 25 0
16 6 25 15 25 9 0 15 -9 15 -25z"/>
<path d="M2940 1705 c0 -25 5 -45 10 -45 6 0 10 7 10 15 0 8 7 15 15 15 8 0
15 5 15 10 0 6 -7 10 -15 10 -8 0 -15 5 -15 10 0 6 7 10 15 10 8 0 15 5 15 10
0 6 -11 10 -25 10 -23 0 -25 -4 -25 -45z"/>
<path d="M3000 1740 c0 -5 5 -10 10 -10 6 0 10 -16 10 -35 0 -24 5 -35 15 -35
10 0 15 11 15 35 0 19 5 35 10 35 6 0 10 5 10 10 0 6 -16 10 -35 10 -19 0 -35
-4 -35 -10z"/>
<path d="M3080 1743 c0 -5 5 -25 11 -45 11 -43 31 -49 47 -15 l11 22 0 -22 c1
-15 7 -23 19 -23 14 0 21 12 29 45 8 36 8 45 -3 45 -8 0 -14 -9 -14 -19 0 -11
-4 -23 -10 -26 -6 -4 -10 5 -10 19 0 38 -28 33 -38 -6 l-8 -33 -7 33 c-4 17
-11 32 -17 32 -5 0 -10 -3 -10 -7z"/>
<path d="M3227 1707 l-15 -44 44 1 c24 1 44 3 44 5 0 2 -5 21 -12 42 -16 54
-42 52 -61 -4z m38 3 c3 -5 1 -10 -4 -10 -6 0 -11 5 -11 10 0 6 2 10 4 10 3 0
8 -4 11 -10z"/>
<path d="M3320 1706 c0 -25 5 -46 10 -46 6 0 10 8 10 18 1 16 1 16 14 0 14
-20 42 -25 30 -7 -4 7 -7 26 -8 43 -1 26 -5 32 -28 34 -27 3 -28 2 -28 -42z
m40 14 c0 -5 -4 -10 -10 -10 -5 0 -10 5 -10 10 0 6 5 10 10 10 6 0 10 -4 10
-10z"/>
<path d="M3400 1705 c0 -43 1 -45 30 -45 17 0 30 5 30 10 0 6 -7 10 -15 10
-21 0 -19 20 3 20 15 1 15 2 -2 15 -17 13 -18 15 -3 15 9 0 17 5 17 10 0 6
-13 10 -30 10 -29 0 -30 -2 -30 -45z"/>
<path d="M3510 1705 c0 -43 1 -45 28 -45 33 0 52 16 52 45 0 29 -19 45 -52 45
-27 0 -28 -2 -28 -45z m50 0 c0 -16 -6 -25 -15 -25 -9 0 -15 9 -15 25 0 16 6
25 15 25 9 0 15 -9 15 -25z"/>
<path d="M3610 1705 c0 -41 2 -45 25 -45 14 0 25 5 25 10 0 6 -7 10 -15 10
-21 0 -19 20 3 20 15 1 15 2 -2 15 -17 13 -18 15 -3 15 9 0 17 5 17 10 0 6
-11 10 -25 10 -23 0 -25 -4 -25 -45z"/>
<path d="M3675 1733 c3 -10 9 -30 12 -45 9 -45 38 -36 56 17 13 37 13 45 2 45
-7 0 -18 -12 -23 -27 l-10 -28 -7 28 c-4 15 -14 27 -22 27 -10 0 -13 -6 -8
-17z"/>
<path d="M3770 1705 c0 -41 2 -45 25 -45 28 0 35 20 8 20 -17 1 -17 1 0 14 9
7 17 16 17 19 0 3 -8 8 -17 10 -17 4 -17 5 0 6 27 2 20 21 -8 21 -23 0 -25 -4
-25 -45z"/>
<path d="M3840 1705 c0 -43 1 -45 30 -45 17 0 30 5 30 10 0 6 -9 10 -20 10
-16 0 -20 7 -20 35 0 19 -4 35 -10 35 -5 0 -10 -20 -10 -45z"/>
<path d="M3918 1724 c-17 -36 0 -59 43 -59 30 0 34 3 37 28 7 57 -57 81 -80
31z m56 -10 c8 -20 -1 -34 -20 -34 -8 0 -14 10 -14 25 0 28 24 34 34 9z"/>
<path d="M4020 1705 c0 -25 2 -45 4 -45 3 0 19 13 37 29 27 25 30 32 19 45 -7
9 -23 16 -36 16 -22 0 -24 -4 -24 -45z m40 15 c0 -5 -4 -10 -10 -10 -5 0 -10
5 -10 10 0 6 5 10 10 10 6 0 10 -4 10 -10z"/>
<path d="M4100 1705 c0 -43 1 -45 30 -45 17 0 30 5 30 10 0 6 -7 10 -15 10
-21 0 -19 20 3 20 15 1 15 2 -2 15 -17 13 -18 15 -3 15 9 0 17 5 17 10 0 6
-13 10 -30 10 -29 0 -30 -2 -30 -45z"/>
<path d="M4170 1706 c0 -34 4 -46 15 -46 8 0 15 8 15 18 1 16 1 16 14 0 14
-20 42 -25 30 -7 -4 7 -7 26 -8 43 -1 27 -5 31 -33 34 -33 3 -33 3 -33 -42z
m50 20 c0 -3 -4 -8 -10 -11 -5 -3 -10 -1 -10 4 0 6 5 11 10 11 6 0 10 -2 10
-4z"/>
<path d="M1350 1155 c0 -33 2 -35 35 -35 33 0 35 2 35 35 0 33 -2 35 -35 35
-33 0 -35 -2 -35 -35z"/>
<path d="M1430 1155 l0 -35 2180 0 2180 0 0 35 0 35 -2180 0 -2180 0 0 -35z"/>
<path d="M5800 1155 c0 -33 2 -35 35 -35 33 0 35 2 35 35 0 33 -2 35 -35 35
-33 0 -35 -2 -35 -35z"/>
</g>
</svg>
