<?xml version="1.0" standalone="no"?>
<!DOCTYPE svg PUBLIC "-//W3C//DTD SVG 20010904//EN"
 "http://www.w3.org/TR/2001/REC-SVG-20010904/DTD/svg10.dtd">
<svg version="1.0" xmlns="http://www.w3.org/2000/svg"
 width="700.000000pt" height="700.000000pt" viewBox="0 0 700.000000 700.000000"
 preserveAspectRatio="xMidYMid meet">
<metadata>
Created by potrace 1.14, written by Peter Selinger 2001-2017
</metadata>
<g transform="translate(0.000000,700.000000) scale(0.100000,-0.100000)"
fill="#000000" stroke="none">
<path d="M2810 6988 c-183 -40 -480 -124 -555 -158 -11 -5 -65 -28 -120 -50
-192 -80 -413 -199 -596 -321 -48 -33 -93 -59 -99 -59 -5 0 -10 -4 -10 -9 0
-4 -34 -35 -76 -67 -43 -32 -82 -63 -88 -69 -6 -5 -40 -35 -76 -65 -78 -66
-281 -269 -330 -329 -19 -24 -44 -53 -56 -65 -32 -34 -164 -211 -231 -311
-277 -413 -475 -924 -549 -1415 -3 -25 -9 -54 -12 -65 -10 -35 -11 -858 -1
-925 5 -36 12 -83 15 -105 28 -206 117 -534 204 -750 229 -574 598 -1074 1072
-1456 87 -70 105 -89 118 -128 l16 -46 51 -2 c46 -1 90 -15 103 -33 3 -3 32
-21 65 -40 33 -18 67 -39 75 -45 8 -7 80 -46 160 -87 266 -137 555 -242 830
-303 8 -2 26 -6 40 -9 14 -3 39 -8 55 -11 17 -3 73 -13 125 -22 80 -15 162
-18 530 -18 417 0 466 2 590 24 30 6 71 13 90 16 19 3 53 10 75 15 22 6 51 13
65 16 317 66 755 251 1061 450 63 41 71 43 150 46 l83 3 24 75 c18 56 32 81
57 100 121 95 350 316 446 430 30 36 56 67 60 70 41 38 238 315 314 445 114
192 243 469 294 630 16 47 32 79 53 96 27 25 29 30 20 63 -8 26 -6 48 4 83 8
26 16 57 18 68 2 11 11 49 19 85 21 86 26 115 47 240 12 79 13 1035 0 1100 -4
25 -14 74 -20 110 -7 36 -25 118 -41 182 -16 64 -26 124 -23 133 4 9 0 23 -8
33 -8 9 -30 60 -48 112 -145 422 -334 765 -614 1115 -102 127 -341 369 -471
476 -68 56 -105 94 -117 121 -16 35 -30 44 -66 39 -7 -1 -68 33 -135 77 -287
185 -554 313 -858 410 -80 26 -228 67 -279 77 -8 2 -50 10 -92 19 -66 14 -165
16 -695 15 -360 -1 -637 -5 -663 -11z m2767 -6324 c-13 -37 -16 -39 -63 -42
l-49 -3 60 45 c33 24 61 43 62 42 2 -2 -3 -20 -10 -42z m-4092 -34 c3 -6 -3
-10 -13 -10 -11 0 -22 9 -25 20 -4 17 -2 18 13 10 11 -6 22 -15 25 -20z"/>
</g>
</svg>
